<?xml version="1.0" encoding="utf-8"?>
<!-- Svg Vector Icons : http://www.onlinewebfonts.com/icon -->
<!DOCTYPE svg PUBLIC "-//W3C//DTD SVG 1.1//EN" "http://www.w3.org/Graphics/SVG/1.1/DTD/svg11.dtd">
<svg version="1.1" xmlns="http://www.w3.org/2000/svg" xmlns:xlink="http://www.w3.org/1999/xlink" x="0px" y="0px" viewBox="0 0 1000 1000" enable-background="new 0 0 1000 1000" xml:space="preserve">
<metadata> Svg Vector Icons : http://www.onlinewebfonts.com/icon </metadata>
<g><g transform="translate(0.000000,511.000000) scale(0.100000,-0.100000)"><path d="M317.6,4954.1c-85.8-43.9-117.8-75.8-161.7-161.7L100,4686.7V120c0-3439,6-4580.7,24-4632.5c35.9-107.8,95.8-173.7,203.6-227.5l99.8-49.9H5002h4574.7l105.8,55.9c85.8,43.9,117.8,75.8,161.7,161.7l55.9,105.8V108v4574.7l-49.9,99.8c-53.9,107.8-119.7,167.7-227.5,203.6c-51.9,18-1193.6,24-4632.5,24H423.3L317.6,4954.1z M9375.1,4708.6c75.8-27.9,183.6-133.7,217.5-211.6c24-53.9,27.9-754.5,27.9-4385c0-2997.9-6-4337.2-21.9-4377.1c-27.9-75.8-133.7-183.6-211.6-217.5c-95.8-41.9-8678.3-41.9-8774.1,0c-77.9,33.9-183.6,141.7-211.6,217.5c-29.9,79.8-29.9,8670.3,0,8750.2c27.9,73.8,131.7,183.6,207.6,217.6c49.9,22,810.4,25.9,4385.1,27.9C7995.9,4730.6,9335.2,4724.6,9375.1,4708.6z"/><path d="M3884.3,3269.6c-29.9-79.8-321.3-908.1-648.7-1842.2L2640.8-269.2l928.1-6c560.9-2,934.1,4,940.1,14c8,10,119.8,375.2,251.5,808.3c131.7,435.1,243.5,790.4,249.5,790.4c6,0,147.7-501,317.4-1113.7C5497-387,5638.7-899.9,5644.7-911.9c6-20-325.3-25.9-1618.7-25.9H2399.3l-71.9-203.6c-39.9-113.8-215.6-618.7-389.2-1123.7l-315.4-918.1l1027.9-6c564.9-2,1031.9,0,1035.9,4c6,4,65.9,199.6,135.7,435.1l125.7,425.1l1047.9,6l1049.9,4l21.9-83.8c57.9-217.5,217.6-780.4,225.5-786.4c4-4,475-6,1045.9-4l1037.9,6l-255.5,728.5c-139.7,401.2-439.1,1253.4-662.7,1896.1c-511,1457-1349.3,3844.2-1375.2,3918l-20,53.9H5000H3936.2L3884.3,3269.6z"/></g></g>
</svg>